<svg width="25" height="25" viewBox="0 0 25 25" fill="none" xmlns="http://www.w3.org/2000/svg">
<path d="M18.1346 16.6817C18.2278 16.4678 18.3085 16.248 18.3734 16.0224L21.2499 15.2864L24.25 17.4741L21.2499 13.0984L18.5383 13.8895C18.5122 13.682 18.4737 13.4779 18.4242 13.2776L20.6875 12.0047L22.4505 8.53842H22.4485C23.1949 7.0649 22.4767 4.24301 20.7968 2.13635C19.7149 0.778542 18.4886 0.0415039 17.5183 0.0374756L19.7496 6.55303L15.9573 3.75128C16.2376 4.94643 16.8527 6.24132 17.7302 7.34063C18.435 8.22491 19.2001 8.84568 19.9163 9.1728L19.375 10.9109L17.8877 11.9279C17.1676 10.6456 15.9381 9.64078 14.441 9.13738C14.5359 8.96722 14.5929 8.75039 14.5929 8.51411C14.5929 7.96779 14.2891 7.52482 13.9146 7.52482C13.54 7.52482 13.2363 7.96779 13.2363 8.51411C13.2363 8.63579 13.2521 8.75164 13.2796 8.85929C12.9446 8.80929 12.601 8.7822 12.2505 8.7822C11.8999 8.7822 11.5564 8.80929 11.2213 8.85929C11.2489 8.75164 11.2647 8.63565 11.2647 8.51411C11.2647 7.96779 10.961 7.52482 10.5864 7.52482C10.2118 7.52482 9.9081 7.96779 9.9081 8.51411C9.9081 8.75053 9.96505 8.96722 10.0599 9.13738C8.56276 9.64078 7.33324 10.6458 6.61305 11.9282L5.12533 10.9111L4.58429 9.17378C5.30029 8.84679 6.06505 8.22657 6.76952 7.34313C7.64705 6.24368 8.2621 4.94741 8.54333 3.751L4.7501 6.55275L6.98048 0.0384479C6.00914 0.0440042 4.78476 0.779653 3.7019 2.13885C2.022 4.24523 1.3041 7.06893 2.05143 8.54175L3.81257 12.0046L6.07629 13.2778C6.02667 13.4781 5.98829 13.682 5.96219 13.8897L3.2501 13.0986L0.25 17.4741L3.2501 15.2864L6.12714 16.0226C6.1921 16.2482 6.27276 16.4678 6.36591 16.6817L3.2501 17.4743L1.7501 21.0295L4.28495 18.6801L7.2819 18.3016L7.68667 18.9696L6.43771 19.3885L4.7501 21.8497L6.62162 24.0333C6.62181 24.0337 6.6221 24.0343 6.62238 24.0347L6.62248 24.0343L6.62514 24.0375L6.62391 24.0301C6.71391 23.7943 6.76581 23.5232 6.76581 23.2342C6.76581 22.6566 6.56076 22.1497 6.25152 21.8573L6.25019 21.8497L7.094 20.7558H8.76905L8.98381 21.1103C9.13829 21.3653 9.36038 21.5113 9.59381 21.5113H14.8743C15.1076 21.5113 15.3297 21.3653 15.4842 21.1103L15.699 20.7558H17.4063L18.2501 21.8497L18.2488 21.8573C17.9395 22.1497 17.7345 22.6566 17.7345 23.2342C17.7345 23.5232 17.7864 23.7943 17.8764 24.0301L17.8751 24.0375L17.8778 24.0343L17.8779 24.0347C17.8782 24.0343 17.8784 24.0337 17.8787 24.0333L19.7501 21.8497L18.0626 19.3884L16.7869 18.9604L17.1885 18.2977L20.2153 18.68L22.7502 21.0293L21.2502 17.4741L18.1346 16.6817Z" fill="white"/>
</svg>
